<?xml version="1.0" encoding="UTF-8" standalone="no" ?>
<!DOCTYPE svg PUBLIC "-//W3C//DTD SVG 1.1//EN" "http://www.w3.org/Graphics/SVG/1.1/DTD/svg11.dtd">
<svg xmlns="http://www.w3.org/2000/svg" xmlns:xlink="http://www.w3.org/1999/xlink" version="1.1" width="1280" height="988.7333351981463" viewBox="0 0 1280 988.7333351981463" xml:space="preserve">
<desc>Created with Fabric.js 5.3.0</desc>
<defs>
</defs>
<g transform="matrix(1 0 0 1 640 494.36666759907314)" id="background-logo"  >
<rect style="stroke: none; stroke-width: 0; stroke-dasharray: none; stroke-linecap: butt; stroke-dashoffset: 0; stroke-linejoin: miter; stroke-miterlimit: 4; fill: rgb(255,255,255); fill-opacity: 0; fill-rule: nonzero; opacity: 1;"  paint-order="stroke"  x="-1035.7285813263445" y="-828.5828650610757" rx="0" ry="0" width="2071.457162652689" height="1657.1657301221514" />
</g>
<g transform="matrix(3.1868571733118296 0 0 3.1868571733118296 639.139313833752 525.0508019158802)" id="logo-logo"  >
<g style=""  paint-order="stroke"   >
		<g transform="matrix(0.8009450098341586 0 0 -0.8009450098341586 -98.48203585768158 -51.15996203065197)"  >
<path style="stroke: none; stroke-width: 1; stroke-dasharray: none; stroke-linecap: butt; stroke-dashoffset: 0; stroke-linejoin: miter; stroke-miterlimit: 4; fill: rgb(115,115,115); fill-rule: nonzero; opacity: 1;"  paint-order="stroke"  transform=" translate(0.0024999999999995026, -12.384)" d="M 0 0 C 6.834 0.001 12.377 5.545 12.377 12.382 C 12.377 19.224 6.834 24.767 0 24.768 C -6.84 24.767 -12.382 19.224 -12.382 12.382 C -12.382 5.545 -6.84 0.001 0 0" stroke-linecap="round" />
</g>
		<g transform="matrix(0.8009450098341586 0 0 -0.8009450098341586 -65.01823296880644 -51.15996203065197)"  >
<path style="stroke: none; stroke-width: 1; stroke-dasharray: none; stroke-linecap: butt; stroke-dashoffset: 0; stroke-linejoin: miter; stroke-miterlimit: 4; fill: rgb(115,115,115); fill-rule: nonzero; opacity: 1;"  paint-order="stroke"  transform=" translate(-15.085499999999998, -12.384)" d="M 0 0 L 30.173 0 C 34.658 0 38.297 5.544 38.297 12.382 C 38.297 19.224 34.657999999999994 24.768 30.172999999999995 24.768 L 0 24.768 C -4.486 24.768 -8.126 19.224 -8.126 12.382000000000001 C -8.126 5.544 -4.486 0 0 0" stroke-linecap="round" />
</g>
		<g transform="matrix(0.8009450098341586 0 0 -0.8009450098341586 -106.85952018804193 3.012113898483335)"  >
<path style="stroke: none; stroke-width: 1; stroke-dasharray: none; stroke-linecap: butt; stroke-dashoffset: 0; stroke-linejoin: miter; stroke-miterlimit: 4; fill: rgb(115,115,115); fill-rule: nonzero; opacity: 1;"  paint-order="stroke"  transform=" translate(0.0030000000000001137, 12.3845)" d="M 0 0 C -6.84 -0.001 -12.382 -5.545 -12.382 -12.386 C -12.382 -19.224 -6.84 -24.768 0 -24.769 C 6.834 -24.767999999999997 12.376 -19.223999999999997 12.376 -12.386 C 12.376 -5.545 6.834 -0.001 0 0" stroke-linecap="round" />
</g>
		<g transform="matrix(0.8009450098341586 0 0 -0.8009450098341586 -73.39531682666194 3.0118736149803738)"  >
<path style="stroke: none; stroke-width: 1; stroke-dasharray: none; stroke-linecap: butt; stroke-dashoffset: 0; stroke-linejoin: miter; stroke-miterlimit: 4; fill: rgb(115,115,115); fill-rule: nonzero; opacity: 1;"  paint-order="stroke"  transform=" translate(-23.2115, -0.0015000000000000568)" d="M 0 0 C 0 -6.838 3.64 -12.383 8.126 -12.383 L 38.299 -12.383 C 42.784 -12.383 46.423 -6.837999999999999 46.423 0 C 46.423 6.841 42.784 12.386 38.299 12.386 L 8.126 12.386 C 3.64 12.386 0 6.841 0 0" stroke-linecap="round" />
</g>
		<g transform="matrix(0.8009450098341586 0 0 -0.8009450098341586 -86.19561950132652 53.83295581197149)"  >
<path style="stroke: none; stroke-width: 1; stroke-dasharray: none; stroke-linecap: butt; stroke-dashoffset: 0; stroke-linejoin: miter; stroke-miterlimit: 4; fill: rgb(115,115,115); fill-rule: nonzero; opacity: 1;"  paint-order="stroke"  transform=" translate(0.0024999999999995026, 12.3835)" d="M 0 0 C -6.84 0 -12.382 -5.545 -12.382 -12.385 C -12.382 -19.223 -6.84 -24.767 0 -24.767 C 6.834 -24.767 12.377 -19.223 12.377 -12.385 C 12.377 -5.545 6.834 0 0 0" stroke-linecap="round" />
</g>
		<g transform="matrix(0.8009450098341586 0 0 -0.8009450098341586 -52.731576328948506 53.83295581197149)"  >
<path style="stroke: none; stroke-width: 1; stroke-dasharray: none; stroke-linecap: butt; stroke-dashoffset: 0; stroke-linejoin: miter; stroke-miterlimit: 4; fill: rgb(115,115,115); fill-rule: nonzero; opacity: 1;"  paint-order="stroke"  transform=" translate(15.087499999999999, 12.3835)" d="M 0 0 L -30.173 0 C -34.659 0 -38.299 -5.545 -38.299 -12.385 C -38.299 -19.225 -34.659 -24.767 -30.173000000000002 -24.767 L 0 -24.767 C 4.485 -24.767 8.124 -19.225 8.124 -12.385 C 8.124 -5.545 4.485 0 0 0" stroke-linecap="round" />
</g>
		<g transform="matrix(0.8009450098341586 0 0 -0.8009450098341586 32.07648603734128 0)"  >
<linearGradient id="SVGID_53_190366" gradientUnits="userSpaceOnUse" gradientTransform="matrix(1 0 0 1 -184.43 -97.09399999999997)"  x1="0" y1="0" x2="0" y2="229">
<stop offset="0%" style="stop-color:rgb(245,81,95);stop-opacity: 1"/>
<stop offset="100%" style="stop-color:rgb(159,4,27);stop-opacity: 1"/>
</linearGradient>
<path style="stroke: none; stroke-width: 1; stroke-dasharray: none; stroke-linecap: butt; stroke-dashoffset: 0; stroke-linejoin: miter; stroke-miterlimit: 4; fill: url(#SVGID_53_190366); fill-rule: nonzero; opacity: 1;"  paint-order="stroke"  transform=" translate(78.68250000000003, -17.258000000000024)" d="M 0 0 C -7.462 0 -13.51 6.049 -13.51 13.51 C -13.51 20.971 -7.462 27.02 0 27.02 C 7.462 27.02 13.51 20.971 13.51 13.51 C 13.51 6.049 7.462 0 0 0 M -26.147 -61.533 C -33.608999999999995 -61.533 -39.657 -55.484 -39.657 -48.023 C -39.657 -40.56400000000001 -33.608999999999995 -34.515 -26.147 -34.515 C -18.686 -34.515 -12.637999999999998 -40.564 -12.637999999999998 -48.022999999999996 C -12.637999999999998 -55.483999999999995 -18.686 -61.532999999999994 -26.147 -61.532999999999994 M -92.801 0.643 C -98.399 0.643 -102.926 6.42 -102.926 13.558 C -102.926 20.667 -98.399 26.444 -92.801 26.444 L -36.058 26.444 C -33.269 26.444 -30.727 24.997999999999998 -28.892 22.676 C -27.04 20.325 -25.91 17.104999999999997 -25.91 13.557999999999998 C -25.91 6.419999999999998 -30.459 0.6429999999999989 -36.058 0.6429999999999989 z M -52.992000000000004 90.471 C -45.531000000000006 90.471 -39.482000000000006 84.422 -39.482000000000006 76.961 C -39.482000000000006 69.5 -45.531000000000006 63.452 -52.992000000000004 63.452 C -60.45400000000001 63.452 -66.50200000000001 69.5 -66.50200000000001 76.961 C -66.50200000000001 84.422 -60.45400000000001 90.471 -52.99200000000001 90.471 M -80.537 131.39600000000002 C -82.772 131.525 -85.02000000000001 131.61 -87.287 131.61 C -89.554 131.61 -91.801 131.525 -94.036 131.39600000000002 L -100.349 131.39600000000002 C -113.863 131.39600000000002 -126.46000000000001 127.28500000000001 -137.094 120.21500000000002 C -141.25 117.45200000000001 -145.11599999999999 114.25000000000001 -148.607 110.64400000000002 C -156 102.98600000000002 -150.61599999999999 89.73700000000002 -140.24 89.73700000000002 L -92.971 89.73700000000002 C -90.166 89.73700000000002 -87.644 88.29100000000003 -85.809 85.94700000000002 C -83.975 83.62500000000001 -82.846 80.39100000000002 -82.846 76.82900000000002 C -82.846 69.70600000000002 -87.37700000000001 63.93600000000002 -92.971 63.93600000000002 L -168.935 63.93600000000002 C -168.931 63.96900000000002 -168.927 64.00000000000001 -168.937 63.93600000000002 C -172.96800000000002 63.47200000000002 -176.638 61.14300000000002 -179.366 58.279000000000025 C -182.5 54.98800000000003 -184.43 50.45800000000003 -184.43 45.450000000000024 C -184.43 36.12500000000003 -177.725 27.470000000000024 -169.09 26.444000000000024 L -135.598 26.444000000000024 C -132.80700000000002 26.444000000000024 -130.26700000000002 24.998000000000022 -128.43300000000002 22.676000000000023 C -126.59800000000003 20.325000000000024 -125.46900000000002 17.105000000000025 -125.46900000000002 13.558000000000023 C -125.46900000000002 6.420000000000023 -130.00000000000003 0.6430000000000238 -135.598 0.6430000000000238 L -169.03000000000003 0.6430000000000238 C -169.03600000000003 0.7140000000000237 -169.04300000000003 0.7930000000000238 -169.03300000000002 0.6430000000000238 C -172.68 0.12200000000002376 -175.911 -2.462999999999976 -178.39300000000003 -5.069999999999976 C -181.37500000000003 -8.196999999999976 -183.22700000000003 -12.507999999999976 -183.22700000000003 -17.279999999999976 C -183.22700000000003 -26.847999999999978 -174.61000000000004 -34.86299999999997 -165.51400000000004 -34.86299999999997 L -165.07600000000005 -34.98099999999997 L -114.88800000000005 -34.98099999999997 C -112.09900000000005 -34.98099999999997 -109.55600000000005 -36.427999999999976 -107.72200000000005 -38.74999999999997 C -105.88700000000006 -41.09399999999997 -104.76100000000005 -44.327999999999975 -104.76100000000005 -47.89099999999997 C -104.76100000000005 -55.01399999999997 -109.28900000000006 -60.78299999999997 -114.88800000000005 -60.78299999999997 L -142.59000000000006 -60.78299999999997 C -150.27000000000007 -60.78299999999997 -155.37000000000006 -69.10399999999997 -152.20100000000005 -76.46299999999997 C -152.11500000000004 -76.66399999999996 -152.02000000000004 -76.85799999999996 -151.93300000000005 -77.05899999999997 C -133.54100000000005 -89.68799999999997 -111.28200000000004 -97.09399999999997 -87.28700000000005 -97.09399999999997 C -24.132000000000048 -97.09399999999997 27.064999999999955 -45.895999999999965 27.064999999999955 17.258000000000038 C 27.064999999999955 78.14500000000004 -20.527000000000044 127.90000000000003 -80.53700000000005 131.39600000000004" stroke-linecap="round" />
</g>
</g>
</g>
<g transform="matrix(1.888000774121641 -2.5673939549677898 2.5673939549677898 1.888000774121641 61.516240210358205 342.5746109710142)" id="text-logo-0"  >
<g style=""  paint-order="stroke"   >
		<g transform="matrix(1 0 0 1 0 0)" id="79566224-4c1f-4c24-b1e7-4bf96d9e38ea-path-0"  >
<path style="stroke: rgb(255,255,255); stroke-width: 0; stroke-dasharray: none; stroke-linecap: butt; stroke-dashoffset: 0; stroke-linejoin: miter; stroke-miterlimit: 4; fill: rgb(115,115,115); fill-rule: nonzero; opacity: 1;"  paint-order="stroke"  transform=" translate(-13.31925791294968, 15.21)" d="M 13.05 -4.86 C 11.21 -4.86 9.31 -5.31 7.96 -6.57 L 7.96 -13.54 C 8.96 -14.04 11.12 -14.4 12.82 -14.4 C 16.7 -14.4 19.04 -12.33 19.04 -9 C 19.04 -5.26 16.11 -4.86 13.05 -4.86 Z M 16.11 -22.59 C 16.11 -19.66 12.91 -18.99 9.95 -18.99 C 9.18 -18.99 8.41 -19.04 7.74 -19.08 L 7.69 -25.29 C 8.78 -25.43 10.35 -25.56 12.24 -25.56 C 14.63 -25.56 16.11 -24.43 16.11 -22.59 Z M 19.8 -17.86 C 20.93 -19.39 21.51 -21.29 21.51 -23.18 C 21.51 -28.53 16.65 -31 11.83 -31 C 9.45 -31 7.02 -30.91 4.86 -30.91 C 3.38 -30.91 2.16 -29.61 2.21 -28.17 L 2.61 -4.91 C 2.65 -1.26 9.22 0.58 13 0.58 C 19.53 0.58 24.43 -2.11 24.43 -9.22 C 24.43 -12.82 22.86 -15.93 19.8 -17.86 Z" stroke-linecap="round" />
</g>
</g>
</g>
<g transform="matrix(2.4229605198835102 -2.070101679187497 2.070101679187497 2.4229605198835102 170.70843878088442 220.90906044711267)" id="text-logo-1"  >
<g style=""  paint-order="stroke"   >
		<g transform="matrix(1 0 0 1 0 0)" id="86c23550-bfbd-465a-b9f3-1097595439e0-path-0"  >
<path style="stroke: rgb(255,255,255); stroke-width: 0; stroke-dasharray: none; stroke-linecap: butt; stroke-dashoffset: 0; stroke-linejoin: miter; stroke-miterlimit: 4; fill: rgb(115,115,115); fill-rule: nonzero; opacity: 1;"  paint-order="stroke"  transform=" translate(-14.78, 16.18)" d="M 14.76 -31.23 C 6.52 -31.23 1.17 -23.18 1.17 -15.57 C 1.17 -8.05 6.17 -1.13 14.13 -1.13 C 22.09 -1.13 28.39 -8.14 28.39 -15.93 C 28.39 -23.49 22.77 -31.23 14.76 -31.23 Z M 14.13 -6.52 C 9.18 -6.52 6.57 -11.16 6.57 -15.62 C 6.57 -20.11 9.67 -25.83 14.76 -25.83 C 19.75 -25.83 22.99 -20.43 22.99 -15.88 C 22.99 -11.12 19.08 -6.52 14.13 -6.52 Z" stroke-linecap="round" />
</g>
</g>
</g>
<g transform="matrix(2.825658683423994 -1.4736728428927652 1.4736728428927652 2.825658683423994 309.24318710877117 131.7616571960919)" id="text-logo-2"  >
<g style=""  paint-order="stroke"   >
		<g transform="matrix(1 0 0 1 0 0)" id="0c305471-2a85-4504-835f-7497f57ba069-path-0"  >
<path style="stroke: rgb(255,255,255); stroke-width: 0; stroke-dasharray: none; stroke-linecap: butt; stroke-dashoffset: 0; stroke-linejoin: miter; stroke-miterlimit: 4; fill: rgb(115,115,115); fill-rule: nonzero; opacity: 1;"  paint-order="stroke"  transform=" translate(-13.41, 15.120000000000001)" d="M 11.38 -13.68 C 10.21 -13.68 8.73 -13.86 7.79 -14.58 L 7.69 -23.94 C 7.69 -25.06 10.21 -25.29 12.2 -25.29 C 15.66 -25.29 18.04 -22.63 18.04 -18.72 C 18.04 -14.58 14.98 -13.68 11.38 -13.68 Z M 20.38 -5.13 C 19.17 -5.63 18.36 -7.38 18.36 -9.72 C 21.64 -11.38 23.45 -14.58 23.45 -18.81 C 23.45 -25.61 18.68 -30.69 12.29 -30.69 C 6.43 -30.69 2.25 -28.89 2.25 -26.41 L 2.43 -2.25 C 2.43 -0.77 3.78 0.4 5.22 0.4 C 6.71 0.4 7.92 -0.85 7.92 -2.34 L 7.88 -8.91 C 9 -8.64 10.21 -8.37 11.38 -8.37 C 11.97 -8.37 12.51 -8.41 13.05 -8.55 C 14.04 -3.01 17.01 -0.09 20.29 0.4 C 20.47 0.45 20.7 0.45 20.93 0.45 C 22.41 0.45 24.57 -0.14 24.57 -2.61 C 24.57 -5.44 22.32 -4.37 20.38 -5.13 Z" stroke-linecap="round" />
</g>
</g>
</g>
<g transform="matrix(3.07781524905261 -0.8265058595002733 0.8265058595002733 3.07781524905261 454.2113444678524 75.87208176644987)" id="text-logo-3"  >
<g style=""  paint-order="stroke"   >
		<g transform="matrix(1 0 0 1 0 0)" id="983c14b2-fa44-4ea6-b1a0-0b6d6def037c-path-0"  >
<path style="stroke: rgb(255,255,255); stroke-width: 0; stroke-dasharray: none; stroke-linecap: butt; stroke-dashoffset: 0; stroke-linejoin: miter; stroke-miterlimit: 4; fill: rgb(115,115,115); fill-rule: nonzero; opacity: 1;"  paint-order="stroke"  transform=" translate(-13.59, 15.075000000000001)" d="M 12.29 -4.86 C 10.57 -4.86 9.72 -4.91 7.79 -5.49 L 8.05 -24.88 L 13.05 -25.24 C 16.47 -25.52 19.53 -20.29 19.53 -14.22 C 19.53 -7.79 17.28 -4.86 12.29 -4.86 Z M 12.96 -30.73 C 9.9 -30.73 7.42 -30.55 5.13 -30.33 C 3.65 -30.2 2.43 -29.29 2.43 -27.22 L 2.25 -4 C 2.25 -0.58 7.69 0.58 11.34 0.58 C 20.56 0.58 24.93 -5.26 24.93 -14.17 C 24.93 -21.29 21.38 -30.73 12.96 -30.73 Z" stroke-linecap="round" />
</g>
</g>
</g>
<g transform="matrix(3.1831971600706246 -0.15269080917779662 0.15269080917779668 3.183197160070625 606.5178661266011 50.96948000656937)" id="text-logo-4"  >
<g style=""  paint-order="stroke"   >
		<g transform="matrix(1 0 0 1 1.77636e-15 0)" id="62c7a4a0-b7ad-4107-81ae-c3c639cb4f5d-path-0"  >
<path style="stroke: rgb(255,255,255); stroke-width: 0; stroke-dasharray: none; stroke-linecap: butt; stroke-dashoffset: 0; stroke-linejoin: miter; stroke-miterlimit: 4; fill: rgb(115,115,115); fill-rule: nonzero; opacity: 1;"  paint-order="stroke"  transform=" translate(-12.485, 15.524592913257004)" d="M 7.79 -5.54 L 7.79 -13.68 L 18.13 -13.86 C 19.62 -13.86 20.79 -15.12 20.79 -16.61 C 20.79 -18.09 19.48 -19.3 18.04 -19.26 L 7.79 -19.08 L 7.74 -25.61 L 19.53 -25.65 C 21.02 -25.65 22.23 -26.86 22.23 -28.35 C 22.23 -29.83 21.02 -31.05 19.53 -31.05 L 5.04 -31.05 C 3.42 -31.05 2.34 -29.7 2.34 -28.13 L 2.38 -2.97 C 2.38 -1.4 3.96 0.04 5.54 0 L 20.02 -0.63 C 21.55 -0.67 22.63 -1.93 22.63 -3.42 C 22.63 -4.72 21.42 -6.12 20.07 -6.12 Z" stroke-linecap="round" />
</g>
</g>
</g>
<g transform="matrix(3.144128138486674 0.5201123838800493 -0.5201123838800493 3.144128138486674 758.5037485205453 61.54175917693834)" id="text-logo-5"  >
<g style=""  paint-order="stroke"   >
		<g transform="matrix(1 0 0 1 0 0)" id="b0a4e9c3-f40a-4de4-a843-45d3b2572cee-path-0"  >
<path style="stroke: rgb(255,255,255); stroke-width: 0; stroke-dasharray: none; stroke-linecap: butt; stroke-dashoffset: 0; stroke-linejoin: miter; stroke-miterlimit: 4; fill: rgb(115,115,115); fill-rule: nonzero; opacity: 1;"  paint-order="stroke"  transform=" translate(-13.41, 15.120000000000001)" d="M 11.38 -13.68 C 10.21 -13.68 8.73 -13.86 7.79 -14.58 L 7.69 -23.94 C 7.69 -25.06 10.21 -25.29 12.2 -25.29 C 15.66 -25.29 18.04 -22.63 18.04 -18.72 C 18.04 -14.58 14.98 -13.68 11.38 -13.68 Z M 20.38 -5.13 C 19.17 -5.63 18.36 -7.38 18.36 -9.72 C 21.64 -11.38 23.45 -14.58 23.45 -18.81 C 23.45 -25.61 18.68 -30.69 12.29 -30.69 C 6.43 -30.69 2.25 -28.89 2.25 -26.41 L 2.43 -2.25 C 2.43 -0.77 3.78 0.4 5.22 0.4 C 6.71 0.4 7.92 -0.85 7.92 -2.34 L 7.88 -8.91 C 9 -8.64 10.21 -8.37 11.38 -8.37 C 11.97 -8.37 12.51 -8.41 13.05 -8.55 C 14.04 -3.01 17.01 -0.09 20.29 0.4 C 20.47 0.45 20.7 0.45 20.93 0.45 C 22.41 0.45 24.57 -0.14 24.57 -2.61 C 24.57 -5.44 22.32 -4.37 20.38 -5.13 Z" stroke-linecap="round" />
</g>
</g>
</g>
<g transform="matrix(2.97264961394145 1.1486570052991503 -1.1486570052991503 2.97264961394145 900.8455575096124 101.14524386801162)" id="text-logo-6"  >
<g style=""  paint-order="stroke"   >
		<g transform="matrix(1 0 0 1 0 0)" id="5b0eb510-a7ae-4baa-8475-0538c8853f76-path-0"  >
<path style="stroke: rgb(255,255,255); stroke-width: 0; stroke-dasharray: none; stroke-linecap: butt; stroke-dashoffset: 0; stroke-linejoin: miter; stroke-miterlimit: 4; fill: rgb(115,115,115); fill-rule: nonzero; opacity: 1;"  paint-order="stroke"  transform=" translate(-11.54, 15.074603572620589)" d="M 7.69 -5.54 L 7.69 -27.45 C 7.69 -28.93 6.48 -30.15 5 -30.15 C 3.51 -30.15 2.29 -28.93 2.29 -27.45 L 2.29 -2.97 C 2.29 -1.44 3.87 0.04 5.4 0 L 18.22 -0.54 C 19.75 -0.58 20.79 -1.84 20.79 -3.38 C 20.79 -4.68 19.57 -5.94 18.22 -5.94 Z" stroke-linecap="round" />
</g>
</g>
</g>
<g transform="matrix(2.740091013048097 1.6272553220997983 -1.6272553220997983 2.740091013048097 1005.3446740743632 152.0691873235993)" id="text-logo-7"  >
<g style=""  paint-order="stroke"   >
		<g transform="matrix(1 0 0 1 0 -1.77636e-15)" id="e64b54bd-8044-488b-9c6d-cd981cc4c30e-path-0"  >
<path style="stroke: rgb(255,255,255); stroke-width: 0; stroke-dasharray: none; stroke-linecap: butt; stroke-dashoffset: 0; stroke-linejoin: miter; stroke-miterlimit: 4; fill: rgb(115,115,115); fill-rule: nonzero; opacity: 1;"  paint-order="stroke"  transform=" translate(-5.130000000000001, 15.120000000000001)" d="M 5.13 -31.23 C 3.65 -31.23 2.43 -30.02 2.43 -28.53 L 2.43 -1.71 C 2.43 -0.22 3.65 0.99 5.13 0.99 C 6.61 0.99 7.83 -0.22 7.83 -1.71 L 7.83 -28.53 C 7.83 -30.02 6.61 -31.23 5.13 -31.23 Z" stroke-linecap="round" />
</g>
</g>
</g>
<g transform="matrix(2.387469465940626 2.1109353832579165 -2.1109353832579165 2.387469465940626 1115.2955866929053 230.43683047424486)" id="text-logo-8"  >
<g style=""  paint-order="stroke"   >
		<g transform="matrix(1 0 0 1 0 0)" id="880775a4-eeb1-405d-bfe8-9bc6f875ff67-path-0"  >
<path style="stroke: rgb(255,255,255); stroke-width: 0; stroke-dasharray: none; stroke-linecap: butt; stroke-dashoffset: 0; stroke-linejoin: miter; stroke-miterlimit: 4; fill: rgb(115,115,115); fill-rule: nonzero; opacity: 1;"  paint-order="stroke"  transform=" translate(-13.7, 15.57)" d="M 22.36 -31.54 C 20.88 -31.54 19.66 -30.33 19.66 -28.89 L 19.53 -9.63 L 11.16 -26.68 C 10.21 -28.66 8.64 -30.64 6.25 -30.64 C 3.92 -30.64 2.34 -28.57 2.34 -26.37 L 2.34 -3.06 C 2.34 -1.57 3.55 -0.36 5.04 -0.36 C 6.52 -0.36 7.74 -1.57 7.74 -3.06 L 7.74 -21.42 L 17.5 -1.53 C 18.09 -0.36 19.62 0.4 20.93 0.4 C 23.13 0.4 24.88 -1.35 24.93 -3.55 L 25.06 -28.84 C 25.06 -30.33 23.85 -31.54 22.36 -31.54 Z" stroke-linecap="round" />
</g>
</g>
</g>
<g transform="matrix(1.8763585348137422 2.5759148456268295 -2.5759148456268295 1.876358534813742 1221.3174364944048 347.49795611950094)" id="text-logo-9"  >
<g style=""  paint-order="stroke"   >
		<g transform="matrix(1 0 0 1 0 0)" id="906b0969-0371-4e8c-8d3b-0f03ad1d3659-path-0"  >
<path style="stroke: rgb(255,255,255); stroke-width: 0; stroke-dasharray: none; stroke-linecap: butt; stroke-dashoffset: 0; stroke-linejoin: miter; stroke-miterlimit: 4; fill: rgb(115,115,115); fill-rule: nonzero; opacity: 1;"  paint-order="stroke"  transform=" translate(-12.485, 15.524592913257004)" d="M 7.79 -5.54 L 7.79 -13.68 L 18.13 -13.86 C 19.62 -13.86 20.79 -15.12 20.79 -16.61 C 20.79 -18.09 19.48 -19.3 18.04 -19.26 L 7.79 -19.08 L 7.74 -25.61 L 19.53 -25.65 C 21.02 -25.65 22.23 -26.86 22.23 -28.35 C 22.23 -29.83 21.02 -31.05 19.53 -31.05 L 5.04 -31.05 C 3.42 -31.05 2.34 -29.7 2.34 -28.13 L 2.38 -2.97 C 2.38 -1.4 3.96 0.04 5.54 0 L 20.02 -0.63 C 21.55 -0.67 22.63 -1.93 22.63 -3.42 C 22.63 -4.72 21.42 -6.12 20.07 -6.12 Z" stroke-linecap="round" />
</g>
</g>
</g>
<g transform="matrix(3.1868571733118296 0 0 3.1868571733118296 639.1010715476721 961.0193940183221)" id="tagline-2091dfb2-845b-4d80-a4bf-aac084cacf70-logo"  >
<g style=""  paint-order="stroke"   >
		<g transform="matrix(1 0 0 1 0 0)" id="tagline-2091dfb2-845b-4d80-a4bf-aac084cacf70-logo-path-0"  >
<linearGradient id="SVGID_190367" gradientUnits="userSpaceOnUse" gradientTransform="matrix(1 0 0 1 0.8600000000000136 -17.18)"  x1="-0.9117763366698455" y1="-3.915360000000021" x2="-0.9117763366698455" y2="23.08463999999998">
<stop offset="0%" style="stop-color:rgb(245,81,95);stop-opacity: 1"/>
<stop offset="100%" style="stop-color:rgb(159,4,27);stop-opacity: 1"/>
</linearGradient>
<path style="stroke: rgb(25,106,93); stroke-width: 0; stroke-dasharray: none; stroke-linecap: butt; stroke-dashoffset: 0; stroke-linejoin: miter; stroke-miterlimit: 4; fill: url(#SVGID_190367); fill-rule: nonzero; opacity: 1;"  paint-order="stroke"  transform=" translate(-195.285, 8.4)" d="M 15.72 -16.8 L 0.86 -16.8 L 0.86 -13.2 L 6.36 -13.2 L 6.36 0 L 10.2 0 L 10.2 -13.2 L 15.72 -13.2 Z M 24.17 0 L 28.37 0 L 29.42 -2.47 L 37.51 -2.47 L 38.57 0 L 42.77 0 L 35.57 -16.8 L 31.37 -16.8 Z M 30.86 -5.83 L 33.48 -11.9 L 36.07 -5.83 Z M 69.1 -17.18 L 63.26 -11.33 L 57.43 -17.18 L 54.55 -14.23 L 60.36 -8.4 L 54.55 -2.57 L 57.43 0.38 L 63.26 -5.47 L 69.1 0.38 L 71.98 -2.57 L 66.17 -8.4 L 71.98 -14.23 Z M 107.35 0.38 C 110.83 0.38 113.69 -1.27 115.1 -4.03 L 111.79 -6.05 C 111.05 -4.58 109.3 -3.41 107.35 -3.41 C 104.62 -3.41 102.6 -5.54 102.6 -8.38 C 102.6 -11.16 104.47 -13.39 107.35 -13.39 C 109.34 -13.39 111.19 -12.14 111.91 -10.49 L 115.22 -12.55 C 113.86 -15.38 111.07 -17.18 107.35 -17.18 C 102.29 -17.18 98.59 -13.68 98.59 -8.38 C 98.59 -3.31 102.07 0.38 107.35 0.38 Z M 135.12 0.38 C 140.18 0.38 143.88 -3.1 143.88 -8.38 C 143.88 -13.49 140.42 -17.18 135.12 -17.18 C 130.06 -17.18 126.36 -13.68 126.36 -8.38 C 126.36 -3.31 129.84 0.38 135.12 0.38 Z M 135.12 -3.41 C 132.38 -3.41 130.37 -5.54 130.37 -8.38 C 130.37 -11.16 132.24 -13.39 135.12 -13.39 C 137.86 -13.39 139.87 -11.23 139.87 -8.38 C 139.87 -5.64 137.98 -3.41 135.12 -3.41 Z M 156.31 -16.8 L 156.31 0 L 160.15 0 L 160.15 -10.37 L 168.55 0 L 172.39 0 L 172.39 -16.8 L 168.55 -16.8 L 168.55 -6.43 L 160.15 -16.8 Z M 192.12 -17.18 C 188.26 -17.18 185.21 -14.88 185.21 -11.78 C 185.21 -8.02 189.67 -7.08 192.22 -6.48 C 193.8 -6.1 195.22 -5.74 195.22 -4.66 C 195.22 -3.94 194.54 -3.46 192.72 -3.46 C 190.18 -3.46 189.38 -4.32 188.78 -5.76 L 185.16 -4.39 C 185.83 -2.06 188.11 0.38 192.5 0.38 C 196.46 0.38 199.3 -1.63 199.3 -4.87 C 199.3 -8.62 195.53 -9.53 192.86 -10.22 C 190.46 -10.85 189.29 -11.16 189.29 -11.98 C 189.29 -12.96 190.85 -13.34 192.07 -13.34 C 193.56 -13.34 194.5 -12.6 194.74 -11.9 L 198.53 -13.32 C 197.74 -15.36 195.55 -17.18 192.12 -17.18 Z M 227.28 -7.56 L 227.28 -16.8 L 223.44 -16.8 L 223.44 -7.56 C 223.44 -5.18 221.83 -3.46 219.38 -3.46 C 217.01 -3.46 215.28 -5.09 215.28 -7.56 L 215.28 -16.8 L 211.44 -16.8 L 211.44 -7.56 C 211.44 -2.95 214.61 0.38 219.41 0.38 C 223.94 0.38 227.28 -2.78 227.28 -7.56 Z M 240.19 -16.8 L 240.19 0 L 252.62 0 L 252.62 -3.6 L 244.03 -3.6 L 244.03 -16.8 Z M 276.05 -16.8 L 261.19 -16.8 L 261.19 -13.2 L 266.69 -13.2 L 266.69 0 L 270.53 0 L 270.53 -13.2 L 276.05 -13.2 Z M 284.5 0 L 288.7 0 L 289.75 -2.47 L 297.84 -2.47 L 298.9 0 L 303.1 0 L 295.9 -16.8 L 291.7 -16.8 Z M 291.19 -5.83 L 293.81 -11.9 L 296.4 -5.83 Z M 315.6 -16.8 L 315.6 0 L 319.44 0 L 319.44 -10.37 L 327.84 0 L 331.68 0 L 331.68 -16.8 L 327.84 -16.8 L 327.84 -6.43 L 319.44 -16.8 Z M 353.16 0.38 C 356.64 0.38 359.5 -1.27 360.91 -4.03 L 357.6 -6.05 C 356.86 -4.58 355.1 -3.41 353.16 -3.41 C 350.42 -3.41 348.41 -5.54 348.41 -8.38 C 348.41 -11.16 350.28 -13.39 353.16 -13.39 C 355.15 -13.39 357 -12.14 357.72 -10.49 L 361.03 -12.55 C 359.66 -15.38 356.88 -17.18 353.16 -17.18 C 348.1 -17.18 344.4 -13.68 344.4 -8.38 C 344.4 -3.31 347.88 0.38 353.16 0.38 Z M 371.23 -16.8 L 378.43 -6.24 L 378.55 -6.07 L 378.55 0 L 382.39 0 L 382.39 -6.05 L 389.71 -16.8 L 385.27 -16.8 L 380.47 -9.38 L 375.67 -16.8 Z" stroke-linecap="round" />
</g>
</g>
</g>
</svg>